<svg width="24" height="24" viewBox="0 0 24 24" fill="none" xmlns="http://www.w3.org/2000/svg">
<g clip-path="url(#clip0_404_18678)">
<path d="M19.6127 4L13.2334 8.73803L14.4131 5.94266L19.6127 4Z" fill="#E2761B" stroke="#E2761B" stroke-width="0.0641141" stroke-linecap="round" stroke-linejoin="round"/>
<path d="M4.88609 4L11.2142 8.78291L10.0922 5.94266L4.88609 4ZM17.3178 14.9827L15.6188 17.5858L19.2541 18.586L20.2992 15.0404L17.3178 14.9827ZM4.21289 15.0404L5.25154 18.586L8.88681 17.5858L7.18778 14.9827L4.21289 15.0404Z" fill="#E4761B" stroke="#E4761B" stroke-width="0.0641141" stroke-linecap="round" stroke-linejoin="round"/>
<path d="M8.68195 10.5847L7.66895 12.117L11.2786 12.2773L11.1504 8.3984L8.68195 10.5847ZM15.8179 10.5847L13.3174 8.35352L13.2341 12.2773L16.8373 12.117L15.8179 10.5847ZM8.88712 17.5859L11.0542 16.5281L9.18205 15.0663L8.88712 17.5859ZM13.4457 16.5281L15.6191 17.5859L15.3178 15.0663L13.4457 16.5281Z" fill="#E4761B" stroke="#E4761B" stroke-width="0.0641141" stroke-linecap="round" stroke-linejoin="round"/>
<path d="M15.6187 17.5857L13.4452 16.5278L13.6183 17.9448L13.5991 18.541L15.6187 17.5857ZM8.88672 17.5857L10.9063 18.541L10.8935 17.9448L11.0537 16.5278L8.88672 17.5857Z" fill="#D7C1B3" stroke="#D7C1B3" stroke-width="0.0641141" stroke-linecap="round" stroke-linejoin="round"/>
<path d="M10.9388 14.1297L9.13086 13.5976L10.4067 13.0142L10.9388 14.1297ZM13.5611 14.1297L14.0933 13.0142L15.3755 13.5976L13.5611 14.1297Z" fill="#233447" stroke="#233447" stroke-width="0.0641141" stroke-linecap="round" stroke-linejoin="round"/>
<path d="M8.88652 17.5856L9.19427 14.9826L7.1875 15.0403L8.88652 17.5856ZM15.3108 14.9826L15.6185 17.5856L17.3175 15.0403L15.3108 14.9826ZM16.8367 12.1167L13.2335 12.277L13.5669 14.1299L14.099 13.0143L15.3813 13.5977L16.8367 12.1167ZM9.13016 13.5977L10.4124 13.0143L10.9382 14.1299L11.278 12.277L7.66836 12.1167L9.13016 13.5977Z" fill="#CD6116" stroke="#CD6116" stroke-width="0.0641141" stroke-linecap="round" stroke-linejoin="round"/>
<path d="M7.66895 12.1167L9.18205 15.0659L9.13075 13.5977L7.66895 12.1167ZM15.3819 13.5977L15.3178 15.0659L16.8373 12.1167L15.3819 13.5977ZM11.2786 12.277L10.9388 14.1299L11.362 16.3162L11.4581 13.4374L11.2786 12.277ZM13.2341 12.277L13.061 13.431L13.1379 16.3162L13.5675 14.1299L13.2341 12.277Z" fill="#E4751F" stroke="#E4751F" stroke-width="0.0641141" stroke-linecap="round" stroke-linejoin="round"/>
<path d="M13.5675 14.1298L13.138 16.3161L13.4457 16.5277L15.3178 15.0659L15.382 13.5977L13.5675 14.1298ZM9.13086 13.5977L9.18215 15.0659L11.0542 16.5277L11.362 16.3161L10.9388 14.1298L9.13086 13.5977Z" fill="#F6851B" stroke="#F6851B" stroke-width="0.0641141" stroke-linecap="round" stroke-linejoin="round"/>
<path d="M13.5991 18.5412L13.6183 17.945L13.458 17.8039H11.0409L10.8935 17.945L10.9063 18.5412L8.88672 17.5859L9.59198 18.163L11.0217 19.1567H13.4773L14.9134 18.163L15.6187 17.5859L13.5991 18.5412Z" fill="#C0AD9E" stroke="#C0AD9E" stroke-width="0.0641141" stroke-linecap="round" stroke-linejoin="round"/>
<path d="M13.4454 16.528L13.1376 16.3164H11.3617L11.0539 16.528L10.8936 17.9449L11.0411 17.8039H13.4582L13.6185 17.9449L13.4454 16.528Z" fill="#161616" stroke="#161616" stroke-width="0.0641141" stroke-linecap="round" stroke-linejoin="round"/>
<path d="M19.8823 9.04578L20.4272 6.42992L19.613 4L13.4452 8.57775L15.8174 10.5845L19.1706 11.5655L19.9143 10.6999L19.5938 10.4691L20.1067 10.0011L19.7092 9.69333L20.2221 9.30224L19.8823 9.04578ZM4.07812 6.42992L4.6231 9.04578L4.27688 9.30224L4.78978 9.69333L4.39869 10.0011L4.9116 10.4691L4.59103 10.6999L5.32835 11.5655L8.68151 10.5845L11.0538 8.57775L4.88595 4L4.07812 6.42992Z" fill="#763D16" stroke="#763D16" stroke-width="0.0641141" stroke-linecap="round" stroke-linejoin="round"/>
<path d="M19.1707 11.5657L15.8176 10.5847L16.837 12.1171L15.3175 15.0663L17.3178 15.0407H20.2992L19.1707 11.5657ZM8.68164 10.5847L5.32847 11.5657L4.21289 15.0407H7.18778L9.18173 15.0663L7.66864 12.1171L8.68164 10.5847ZM13.2338 12.2773L13.4454 8.57796L14.4199 5.94287H10.0922L11.0539 8.57796L11.2783 12.2773L11.3552 13.4442L11.3617 16.3165H13.1376L13.1504 13.4442L13.2338 12.2773Z" fill="#F6851B" stroke="#F6851B" stroke-width="0.0641141" stroke-linecap="round" stroke-linejoin="round"/>
</g>
<defs>
<clipPath id="clip0_404_18678">
<rect width="24" height="24" fill="white"/>
</clipPath>
</defs>
</svg>
