<svg width="24" height="24" viewBox="0 0 24 24" fill="none" xmlns="http://www.w3.org/2000/svg">
<g style="mix-blend-mode:darken">
<path d="M8.97748 4.61131C8.75205 4.57655 8.74255 4.57248 8.84862 4.55627C9.05192 4.5252 9.53196 4.56755 9.86276 4.64572C10.635 4.82817 11.3377 5.29556 12.0878 6.12564L12.2871 6.34616L12.5722 6.30061C13.7732 6.10878 14.995 6.26124 16.0169 6.73043C16.298 6.85951 16.7413 7.11647 16.7966 7.1825C16.8143 7.20353 16.8466 7.33899 16.8686 7.48354C16.9445 7.98361 16.9064 8.36693 16.7526 8.65323C16.6689 8.80902 16.6642 8.85839 16.7205 8.99172C16.7655 9.09812 16.8907 9.17687 17.0148 9.1767C17.2687 9.17635 17.5422 8.76834 17.6687 8.20062L17.7191 7.97513L17.8187 8.08732C18.3653 8.70288 18.7947 9.54236 18.8685 10.1399L18.8876 10.2957L18.7958 10.1541C18.6377 9.91035 18.4787 9.74444 18.2753 9.61063C17.9085 9.36942 17.5207 9.28734 16.4937 9.23354C15.5661 9.18497 15.0411 9.10622 14.5206 8.93751C13.6349 8.6505 13.1884 8.26827 12.1363 6.89636C11.6691 6.28701 11.3802 5.94987 11.0929 5.67837C10.4401 5.06144 9.79861 4.73789 8.97748 4.61131Z" fill="url(#paint0_linear_405_18706)"/>
<path d="M17.0053 5.97185C17.0287 5.56353 17.0843 5.29421 17.1964 5.04825C17.2407 4.9509 17.2822 4.87122 17.2887 4.87122C17.295 4.87122 17.2757 4.94307 17.2458 5.03089C17.1644 5.26959 17.1509 5.59608 17.207 5.97594C17.2783 6.45791 17.3188 6.52745 17.8314 7.04809C18.0717 7.2923 18.3514 7.60028 18.4527 7.73252L18.637 7.97295L18.4527 7.80112C18.2273 7.59099 17.709 7.1812 17.5945 7.12261C17.5176 7.08333 17.5063 7.08401 17.4589 7.13086C17.4153 7.17403 17.406 7.23889 17.4 7.54556C17.3906 8.02351 17.325 8.33029 17.1669 8.63703C17.0813 8.80293 17.0678 8.76752 17.1452 8.58026C17.203 8.44044 17.2088 8.37898 17.2085 7.9163C17.2075 6.98665 17.0965 6.76315 16.4454 6.38029C16.2804 6.2833 16.0085 6.14343 15.8413 6.06945C15.674 5.99546 15.5412 5.93101 15.546 5.92619C15.5645 5.90796 16.1995 6.09219 16.4552 6.18992C16.8354 6.33528 16.8981 6.35413 16.9443 6.33659C16.9753 6.32483 16.9903 6.23523 17.0053 5.97185Z" fill="url(#paint1_linear_405_18706)"/>
<path d="M9.41534 7.56217C8.9577 6.93597 8.67454 5.97585 8.73585 5.25812L8.7548 5.03601L8.85897 5.0549C9.0546 5.09036 9.39189 5.21514 9.54983 5.31049C9.98325 5.57211 10.1709 5.91656 10.3618 6.80105C10.4177 7.06012 10.4911 7.3533 10.5248 7.45256C10.5792 7.61232 10.7845 7.98549 10.9515 8.22784C11.0717 8.4024 10.9919 8.48511 10.726 8.46125C10.32 8.42484 9.77011 8.04761 9.41534 7.56217Z" fill="url(#paint2_linear_405_18706)"/>
<path d="M16.4495 12.223C14.3109 11.3672 13.5576 10.6243 13.5576 9.37079C13.5576 9.18632 13.564 9.0354 13.5718 9.0354C13.5796 9.0354 13.6623 9.09627 13.7557 9.17069C14.1894 9.51641 14.675 9.66408 16.0194 9.85902C16.8106 9.97374 17.2558 10.0664 17.6665 10.2018C18.9718 10.632 19.7794 11.5052 19.9721 12.6946C20.028 13.0402 19.9952 13.6882 19.9044 14.0298C19.8329 14.2996 19.6142 14.7858 19.5562 14.8045C19.5401 14.8097 19.5244 14.7484 19.5202 14.6651C19.4983 14.2185 19.2713 13.7837 18.8899 13.4581C18.4563 13.0878 17.8739 12.793 16.4495 12.223Z" fill="url(#paint3_linear_405_18706)"/>
<path d="M14.949 12.5784C14.9222 12.4199 14.8758 12.2175 14.8458 12.1286L14.7912 11.967L14.8926 12.0801C15.0328 12.2366 15.1437 12.4368 15.2376 12.7035C15.3093 12.9071 15.3174 12.9676 15.3168 13.2984C15.3163 13.6231 15.3073 13.6912 15.2411 13.8744C15.1367 14.1633 15.0072 14.3682 14.7898 14.588C14.3991 14.9833 13.8968 15.202 13.172 15.2928C13.046 15.3085 12.6788 15.3351 12.3559 15.3518C11.5424 15.3938 11.0069 15.4807 10.5257 15.6487C10.4566 15.6728 10.3948 15.6875 10.3885 15.6813C10.3691 15.662 10.6967 15.4679 10.9672 15.3383C11.3488 15.1556 11.7286 15.056 12.5795 14.9152C12.9999 14.8455 13.434 14.7611 13.5442 14.7275C14.5852 14.4103 15.1203 13.5917 14.949 12.5784Z" fill="url(#paint4_linear_405_18706)"/>
<path d="M15.9294 14.3088C15.6453 13.7017 15.58 13.1155 15.7357 12.5689C15.7523 12.5105 15.7791 12.4626 15.7952 12.4626C15.8113 12.4626 15.8784 12.4987 15.9442 12.5427C16.0752 12.6303 16.3378 12.7779 17.0374 13.157C17.9105 13.6301 18.4083 13.9965 18.7469 14.415C19.0433 14.7815 19.2267 15.199 19.3151 15.7082C19.3651 15.9965 19.3357 16.6903 19.2612 16.9806C19.0265 17.8963 18.481 18.6154 17.7029 19.0351C17.5889 19.0966 17.4865 19.147 17.4755 19.1473C17.4643 19.1475 17.5059 19.0425 17.5678 18.914C17.8294 18.3701 17.8593 17.8411 17.6614 17.2523C17.5402 16.8917 17.2931 16.4517 16.7943 15.7082C16.2142 14.8437 16.0721 14.6137 15.9294 14.3088Z" fill="url(#paint5_linear_405_18706)"/>
<path d="M7.89644 17.5847C8.69009 16.9187 9.67759 16.4455 10.5771 16.3003C10.9648 16.2377 11.6106 16.2625 11.9695 16.3538C12.545 16.5002 13.0597 16.8281 13.3274 17.2186C13.589 17.6003 13.7012 17.933 13.8181 18.6731C13.8642 18.9651 13.9143 19.2582 13.9295 19.3246C14.0173 19.7082 14.188 20.0147 14.3997 20.1688C14.7358 20.4133 15.3146 20.4284 15.884 20.2077C15.9806 20.1702 16.0645 20.1443 16.0703 20.1502C16.0911 20.1706 15.8043 20.3613 15.6021 20.4617C15.3299 20.5968 15.1135 20.6491 14.8259 20.6491C14.3045 20.6491 13.8715 20.3855 13.5103 19.8479C13.4392 19.742 13.2794 19.4252 13.1552 19.1436C12.7738 18.2789 12.5854 18.0156 12.1425 17.7273C11.7571 17.4765 11.2601 17.4315 10.8862 17.6137C10.395 17.8531 10.258 18.477 10.6097 18.8723C10.7496 19.0295 11.0103 19.1649 11.2235 19.1913C11.6224 19.2407 11.9651 18.9391 11.9651 18.5388C11.9651 18.2789 11.8646 18.1306 11.6116 18.0171C11.2661 17.8621 10.8947 18.0432 10.8964 18.366C10.8972 18.5036 10.9575 18.5899 11.0962 18.6523C11.1852 18.6924 11.1873 18.6955 11.1147 18.6805C10.7977 18.6152 10.7234 18.2353 10.9783 17.9831C11.2844 17.6804 11.9173 17.8139 12.1346 18.2273C12.2259 18.4008 12.2365 18.7466 12.1569 18.9553C11.9787 19.4225 11.4593 19.6682 10.9323 19.5345C10.5735 19.4434 10.4274 19.3449 9.99488 18.902C9.24323 18.1324 8.95143 17.9833 7.8678 17.8152L7.66016 17.783L7.89644 17.5847Z" fill="url(#paint6_linear_405_18706)"/>
<path fill-rule="evenodd" clip-rule="evenodd" d="M4.36968 3.81126C6.87983 6.83929 8.6087 8.08859 8.80083 8.35254C8.95946 8.57048 8.89976 8.76642 8.628 8.91998C8.47688 9.00536 8.16617 9.09186 8.01061 9.09186C7.83467 9.09186 7.77425 9.0244 7.77425 9.0244C7.67224 8.92823 7.61478 8.94505 7.09087 8.02077C6.36354 6.89904 5.75485 5.96852 5.73825 5.95294C5.69985 5.91691 5.70051 5.91813 7.01672 8.25882C7.22938 8.74668 7.05901 8.92576 7.05901 8.99524C7.05901 9.13658 7.02022 9.21088 6.84478 9.40538C6.55232 9.72966 6.42158 10.094 6.32721 10.8481C6.22142 11.6934 5.92391 12.2905 5.09945 13.3125C4.61683 13.9107 4.53787 14.0204 4.41609 14.2615C4.2627 14.5651 4.22052 14.7352 4.20343 15.1185C4.18536 15.524 4.22055 15.7859 4.34516 16.1735C4.45426 16.5128 4.56813 16.7369 4.85924 17.185C5.11047 17.5717 5.25512 17.8591 5.25512 17.9716C5.25512 18.061 5.27231 18.0611 5.66161 17.9737C6.59325 17.7647 7.34973 17.3969 7.77518 16.9462C8.0385 16.6672 8.10032 16.5132 8.10233 16.131C8.10364 15.881 8.0948 15.8286 8.02679 15.6847C7.9161 15.4506 7.71458 15.2559 7.27041 14.9542C6.68845 14.5588 6.43988 14.2404 6.37122 13.8026C6.3149 13.4434 6.38024 13.19 6.70219 12.5193C7.03542 11.8252 7.118 11.5293 7.17386 10.8296C7.20995 10.3776 7.25991 10.1993 7.39059 10.0562C7.52689 9.90695 7.64958 9.85641 7.98687 9.81061C8.53678 9.73595 8.88694 9.59454 9.17476 9.33094C9.42443 9.10225 9.52892 8.88191 9.54494 8.5502L9.55712 8.29878L9.41759 8.1371C8.9123 7.55153 4.03129 3.35095 4.00019 3.35095C3.99355 3.35095 4.15982 3.5581 4.36968 3.81126ZM5.53877 15.5773C5.65301 15.3762 5.59231 15.1177 5.40121 14.9914C5.22066 14.8721 4.94016 14.9283 4.94016 15.0838C4.94016 15.1313 4.96656 15.1658 5.02606 15.1962C5.12625 15.2474 5.13352 15.3051 5.05469 15.4228C4.97486 15.5421 4.98131 15.647 5.07288 15.7182C5.22045 15.833 5.42936 15.7698 5.53877 15.5773Z" fill="url(#paint7_linear_405_18706)"/>
<path fill-rule="evenodd" clip-rule="evenodd" d="M9.90449 9.94255C9.64634 10.0214 9.39539 10.2933 9.31771 10.5784C9.27032 10.7524 9.29721 11.0575 9.36819 11.1517C9.48286 11.304 9.59376 11.3441 9.89404 11.342C10.4819 11.3379 10.993 11.0873 11.0524 10.774C11.1011 10.5172 10.8767 10.1613 10.5675 10.005C10.4079 9.92445 10.0686 9.89248 9.90449 9.94255ZM10.5917 10.4767C10.6824 10.3486 10.6427 10.2103 10.4885 10.1167C10.1949 9.93847 9.75087 10.0859 9.75087 10.3616C9.75087 10.4989 9.98243 10.6486 10.1947 10.6486C10.336 10.6486 10.5293 10.5649 10.5917 10.4767Z" fill="url(#paint8_linear_405_18706)"/>
</g>
<defs>
<linearGradient id="paint0_linear_405_18706" x1="8.7832" y1="4.54602" x2="12.5728" y2="12.8978" gradientUnits="userSpaceOnUse">
<stop stop-color="#FF79C9"/>
<stop offset="0.411458" stop-color="#FF79C9"/>
<stop offset="1" stop-color="#FF79C9" stop-opacity="0"/>
</linearGradient>
<linearGradient id="paint1_linear_405_18706" x1="15.5459" y1="4.87122" x2="18.9371" y2="8.26626" gradientUnits="userSpaceOnUse">
<stop stop-color="#FF79C9"/>
<stop offset="0.411458" stop-color="#FF79C9"/>
<stop offset="1" stop-color="#FF79C9" stop-opacity="0"/>
</linearGradient>
<linearGradient id="paint2_linear_405_18706" x1="8.72754" y1="5.03601" x2="11.6816" y2="7.49747" gradientUnits="userSpaceOnUse">
<stop stop-color="#FF79C9"/>
<stop offset="0.411458" stop-color="#FF79C9"/>
<stop offset="1" stop-color="#FF79C9" stop-opacity="0"/>
</linearGradient>
<linearGradient id="paint3_linear_405_18706" x1="13.5576" y1="9.0354" x2="18.3372" y2="15.7279" gradientUnits="userSpaceOnUse">
<stop stop-color="#FF79C9"/>
<stop offset="0.411458" stop-color="#FF79C9"/>
<stop offset="1" stop-color="#FF79C9" stop-opacity="0"/>
</linearGradient>
<linearGradient id="paint4_linear_405_18706" x1="10.3877" y1="11.967" x2="13.2616" y2="16.748" gradientUnits="userSpaceOnUse">
<stop stop-color="#FF79C9"/>
<stop offset="0.411458" stop-color="#FF79C9"/>
<stop offset="1" stop-color="#FF79C9" stop-opacity="0"/>
</linearGradient>
<linearGradient id="paint5_linear_405_18706" x1="15.6533" y1="12.4626" x2="21.1311" y2="16.2512" gradientUnits="userSpaceOnUse">
<stop stop-color="#FF79C9"/>
<stop offset="0.411458" stop-color="#FF79C9"/>
<stop offset="1" stop-color="#FF79C9" stop-opacity="0"/>
</linearGradient>
<linearGradient id="paint6_linear_405_18706" x1="7.66016" y1="16.2656" x2="10.3811" y2="22.8131" gradientUnits="userSpaceOnUse">
<stop stop-color="#FF79C9"/>
<stop offset="0.411458" stop-color="#FF79C9"/>
<stop offset="1" stop-color="#FF79C9" stop-opacity="0"/>
</linearGradient>
<linearGradient id="paint7_linear_405_18706" x1="4" y1="3.35095" x2="13.9639" y2="8.07845" gradientUnits="userSpaceOnUse">
<stop stop-color="#FF79C9"/>
<stop offset="0.411458" stop-color="#FF79C9"/>
<stop offset="1" stop-color="#FF79C9" stop-opacity="0"/>
</linearGradient>
<linearGradient id="paint8_linear_405_18706" x1="9.29395" y1="9.91858" x2="10.4282" y2="11.6825" gradientUnits="userSpaceOnUse">
<stop stop-color="#FF79C9"/>
<stop offset="0.411458" stop-color="#FF79C9"/>
<stop offset="1" stop-color="#FF79C9" stop-opacity="0"/>
</linearGradient>
</defs>
</svg>
