<svg width="43" height="42" viewBox="0 0 43 42" fill="none" xmlns="http://www.w3.org/2000/svg">
<mask id="path-1-outside-1_101_348" maskUnits="userSpaceOnUse" x="0" y="0" width="43" height="42" fill="black">
<rect fill="white" width="43" height="42"/>
<path d="M1 20C1 8.95431 9.95431 0 21 0V0C32.0457 0 41 8.95431 41 20V20C41 31.0457 32.0457 40 21 40V40C9.95431 40 1 31.0457 1 20V20Z"/>
</mask>
<path d="M1 20C1 8.95431 9.95431 0 21 0V0C32.0457 0 41 8.95431 41 20V20C41 31.0457 32.0457 40 21 40V40C9.95431 40 1 31.0457 1 20V20Z" fill="url(#paint0_diamond_101_348)"/>
<path d="M1 0H41H1ZM43 21C43 32.598 33.598 42 22 42H21C9.40202 42 0 32.598 0 21L2 20C2 29.9411 10.5066 38 21 38C30.9411 38 39 29.9411 39 20L43 21ZM21 42C9.40202 42 0 32.598 0 21C0 9.40202 9.40202 0 21 0C10.5066 0 2 8.95431 2 20C2 29.9411 10.5066 38 21 38V42ZM22 0C33.598 0 43 9.40202 43 21C43 32.598 33.598 42 22 42L21 38C30.9411 38 39 29.9411 39 20C39 8.95431 30.9411 0 21 0H22Z" fill="#799FFF" mask="url(#path-1-outside-1_101_348)"/>
<defs>
<radialGradient id="paint0_diamond_101_348" cx="0" cy="0" r="1" gradientUnits="userSpaceOnUse" gradientTransform="translate(21 20) rotate(90) scale(20)">
<stop stop-color="#E2DFDF"/>
<stop offset="1" stop-color="white"/>
</radialGradient>
</defs>
</svg>
