<svg width="560" height="560" viewBox="0 0 560 560" fill="none" xmlns="http://www.w3.org/2000/svg">
<g clip-path="url(#clip0_401_2)">
<path d="M280 560C434.64 560 560 434.64 560 280C560 125.36 434.64 0 280 0C125.36 0 0 125.36 0 280C0 434.64 125.36 560 280 560Z" fill="#2E3148"/>
<path d="M280 442.469C369.729 442.469 442.469 369.729 442.469 280C442.469 190.271 369.729 117.531 280 117.531C190.271 117.531 117.531 190.271 117.531 280C117.531 369.729 190.271 442.469 280 442.469Z" fill="#1B1E36"/>
<path d="M280.576 35.7213C250.351 35.7213 225.844 145.347 225.844 280.578C225.844 415.809 250.351 525.435 280.576 525.435C310.8 525.435 335.308 415.809 335.308 280.578C335.308 145.347 310.8 35.7213 280.576 35.7213ZM284.355 511.616C280.898 516.226 277.442 512.767 277.442 512.767C263.523 496.639 256.563 466.677 256.563 466.677C232.216 388.324 238.011 220.093 238.011 220.093C249.453 86.5357 270.267 54.9853 277.35 47.9808C278.073 47.2659 279.026 46.8291 280.039 46.7471C281.053 46.6652 282.063 46.9434 282.892 47.5328C293.169 54.815 301.788 85.2701 301.788 85.2701C327.242 179.756 324.937 268.48 324.937 268.48C327.242 345.681 312.182 432.1 312.182 432.1C300.59 497.777 284.355 511.616 284.355 511.616Z" fill="#6F7390"/>
<path d="M492.961 158.724C477.913 132.498 370.637 165.798 253.281 233.092C135.925 300.386 53.144 376.204 68.1811 402.418C83.2182 428.633 190.505 395.344 307.861 328.05C425.217 260.756 507.998 184.939 492.961 158.724ZM82.0646 398.821C76.3034 398.095 77.6048 393.36 77.6048 393.36C84.672 373.265 107.162 352.316 107.162 352.316C163.034 292.204 311.851 213.515 311.851 213.515C433.38 156.972 471.128 159.358 480.704 161.995C481.687 162.269 482.541 162.882 483.115 163.726C483.689 164.57 483.946 165.59 483.84 166.604C482.689 179.148 460.506 201.772 460.506 201.772C391.263 270.897 313.152 313.058 313.152 313.058C247.334 353.49 164.88 383.414 164.88 383.414C102.14 406.022 82.0669 398.821 82.0669 398.821H82.0646Z" fill="#6F7390"/>
<path d="M492.43 403.292C507.595 377.135 425.022 300.971 308.078 233.171C191.135 165.37 83.8723 131.658 68.721 157.86C53.5696 184.061 136.129 260.18 253.14 327.981C370.151 395.781 477.279 429.495 492.43 403.292ZM78.7696 167.966C76.5296 162.655 81.2582 161.376 81.2582 161.376C102.193 157.423 131.6 166.432 131.6 166.432C211.602 184.65 354.256 274.008 354.256 274.008C464.09 350.865 480.935 384.718 483.459 394.327C483.716 395.313 483.616 396.358 483.178 397.277C482.739 398.196 481.99 398.931 481.062 399.352C469.609 404.596 438.935 396.782 438.935 396.782C344.391 371.432 268.78 324.986 268.78 324.986C200.843 288.344 133.665 231.963 133.665 231.963C82.6202 188.984 78.7853 168.025 78.7853 168.025L78.7696 167.966Z" fill="#6F7390"/>
<path d="M280 308.806C295.909 308.806 308.806 295.909 308.806 280C308.806 264.091 295.909 251.194 280 251.194C264.091 251.194 251.194 264.091 251.194 280C251.194 295.909 264.091 308.806 280 308.806Z" fill="#B7B9C8"/>
<path d="M398.106 186.666C407.334 186.666 414.814 178.928 414.814 169.382C414.814 159.836 407.334 152.098 398.106 152.098C388.879 152.098 381.398 159.836 381.398 169.382C381.398 178.928 388.879 186.666 398.106 186.666Z" fill="#B7B9C8"/>
<path d="M123.868 245.432C133.095 245.432 140.576 237.694 140.576 228.148C140.576 218.603 133.095 210.865 123.868 210.865C114.64 210.865 107.159 218.603 107.159 228.148C107.159 237.694 114.64 245.432 123.868 245.432Z" fill="#B7B9C8"/>
<path d="M246.008 457.448C255.236 457.448 262.716 449.71 262.716 440.164C262.716 430.619 255.236 422.881 246.008 422.881C236.78 422.881 229.3 430.619 229.3 440.164C229.3 449.71 236.78 457.448 246.008 457.448Z" fill="#B7B9C8"/>
</g>
<defs>
<clipPath id="clip0_401_2">
<rect width="560" height="560" fill="white"/>
</clipPath>
</defs>
</svg>
