<svg width="312" height="160" viewBox="0 0 312 160" fill="none" xmlns="http://www.w3.org/2000/svg">
<path d="M0 80C0 35.8172 35.8172 0 80 0H160V160H80C35.8172 160 0 124.183 0 80V80Z" fill="url(#paint0_linear_504_18804)"/>
<path d="M192 80C192 101.605 187.613 120.967 180.707 134.78C173.681 148.832 164.714 156 156 156C147.286 156 138.319 148.832 131.293 134.78C124.387 120.967 120 101.605 120 80C120 58.3949 124.387 39.033 131.293 25.2203C138.319 11.1684 147.286 4 156 4C164.714 4 173.681 11.1684 180.707 25.2203C187.613 39.033 192 58.3949 192 80Z" fill="url(#paint1_linear_504_18804)" stroke="white" stroke-width="8"/>
<path d="M205.988 104.276C195.242 93.7523 181.906 86.456 164.531 80.0622C181.817 73.8395 194.967 66.4889 205.62 55.8753C216.611 44.9248 224.68 30.7622 232.08 11.5035C239.91 31.1141 248.243 45.3936 259.285 56.3315C269.909 66.8559 282.804 74.0515 299.541 80.0878C281.599 86.8159 268.252 94.5894 257.616 105.382C246.893 116.264 239.171 129.968 232.113 148.088C225.036 128.985 217.005 115.065 205.988 104.276Z" stroke="#F5F5F5" stroke-width="8"/>
<defs>
<linearGradient id="paint0_linear_504_18804" x1="2.98023e-07" y1="80" x2="160" y2="80" gradientUnits="userSpaceOnUse">
<stop stop-color="white" stop-opacity="0.4"/>
<stop offset="1" stop-color="white" stop-opacity="0"/>
</linearGradient>
<linearGradient id="paint1_linear_504_18804" x1="118.877" y1="1.3171" x2="246.156" y2="64.9567" gradientUnits="userSpaceOnUse">
<stop stop-color="white" stop-opacity="0.9"/>
<stop offset="0.645833" stop-color="white" stop-opacity="0"/>
<stop offset="1" stop-color="white" stop-opacity="0.6"/>
</linearGradient>
</defs>
</svg>
